<mxfile host="app.diagrams.net" modified="2021-09-26T03:21:53.138Z" agent="5.0 (Windows NT 10.0; Win64; x64) AppleWebKit/537.36 (KHTML, like Gecko) Chrome/92.0.4515.159 Safari/537.36" etag="kANIo-HfmLQcbdXzSjtT" version="14.9.8" type="github">
  <diagram id="YEA70oe7kTSdyKRm6zXA" name="Page-1">
    <mxGraphModel dx="2249" dy="1931" grid="1" gridSize="10" guides="1" tooltips="1" connect="1" arrows="1" fold="1" page="1" pageScale="1" pageWidth="827" pageHeight="1169" math="0" shadow="0">
      <root>
        <mxCell id="0" />
        <mxCell id="1" parent="0" />
        <mxCell id="uKUocHzos3Ya5gMg2su9-61" style="edgeStyle=none;rounded=0;orthogonalLoop=1;jettySize=auto;html=1;exitX=0.5;exitY=1;exitDx=0;exitDy=0;entryX=0.5;entryY=0;entryDx=0;entryDy=0;endArrow=none;endFill=0;" parent="1" source="uKUocHzos3Ya5gMg2su9-1" target="uKUocHzos3Ya5gMg2su9-60" edge="1">
          <mxGeometry relative="1" as="geometry" />
        </mxCell>
        <mxCell id="uKUocHzos3Ya5gMg2su9-64" value="1" style="edgeStyle=none;rounded=0;orthogonalLoop=1;jettySize=auto;html=1;exitX=1;exitY=0.5;exitDx=0;exitDy=0;endArrow=none;endFill=0;" parent="1" source="uKUocHzos3Ya5gMg2su9-1" target="uKUocHzos3Ya5gMg2su9-63" edge="1">
          <mxGeometry relative="1" as="geometry" />
        </mxCell>
        <mxCell id="uKUocHzos3Ya5gMg2su9-1" value="企业" style="rounded=0;whiteSpace=wrap;html=1;" parent="1" vertex="1">
          <mxGeometry x="414" y="770" width="120" height="60" as="geometry" />
        </mxCell>
        <mxCell id="uKUocHzos3Ya5gMg2su9-31" style="rounded=0;orthogonalLoop=1;jettySize=auto;html=1;exitX=0;exitY=0.5;exitDx=0;exitDy=0;endArrow=none;endFill=0;" parent="1" source="uKUocHzos3Ya5gMg2su9-2" target="uKUocHzos3Ya5gMg2su9-17" edge="1">
          <mxGeometry relative="1" as="geometry" />
        </mxCell>
        <mxCell id="uKUocHzos3Ya5gMg2su9-32" style="edgeStyle=none;rounded=0;orthogonalLoop=1;jettySize=auto;html=1;exitX=0;exitY=0.5;exitDx=0;exitDy=0;endArrow=none;endFill=0;" parent="1" source="uKUocHzos3Ya5gMg2su9-2" target="uKUocHzos3Ya5gMg2su9-18" edge="1">
          <mxGeometry relative="1" as="geometry" />
        </mxCell>
        <mxCell id="uKUocHzos3Ya5gMg2su9-33" style="edgeStyle=none;rounded=0;orthogonalLoop=1;jettySize=auto;html=1;exitX=0;exitY=0.5;exitDx=0;exitDy=0;entryX=1;entryY=0.5;entryDx=0;entryDy=0;endArrow=none;endFill=0;" parent="1" source="uKUocHzos3Ya5gMg2su9-2" target="uKUocHzos3Ya5gMg2su9-19" edge="1">
          <mxGeometry relative="1" as="geometry" />
        </mxCell>
        <mxCell id="uKUocHzos3Ya5gMg2su9-51" value="n" style="edgeStyle=none;rounded=0;orthogonalLoop=1;jettySize=auto;html=1;exitX=1;exitY=0.5;exitDx=0;exitDy=0;entryX=0;entryY=0.5;entryDx=0;entryDy=0;endArrow=none;endFill=0;" parent="1" source="uKUocHzos3Ya5gMg2su9-2" target="uKUocHzos3Ya5gMg2su9-50" edge="1">
          <mxGeometry relative="1" as="geometry" />
        </mxCell>
        <mxCell id="uKUocHzos3Ya5gMg2su9-2" value="&amp;nbsp;产业园" style="rounded=0;whiteSpace=wrap;html=1;" parent="1" vertex="1">
          <mxGeometry x="-30" y="780" width="120" height="60" as="geometry" />
        </mxCell>
        <mxCell id="uKUocHzos3Ya5gMg2su9-56" style="edgeStyle=none;rounded=0;orthogonalLoop=1;jettySize=auto;html=1;exitX=0.5;exitY=1;exitDx=0;exitDy=0;entryX=0.5;entryY=0;entryDx=0;entryDy=0;endArrow=none;endFill=0;" parent="1" source="uKUocHzos3Ya5gMg2su9-4" target="uKUocHzos3Ya5gMg2su9-54" edge="1">
          <mxGeometry relative="1" as="geometry" />
        </mxCell>
        <mxCell id="uKUocHzos3Ya5gMg2su9-4" value="行业" style="rounded=0;whiteSpace=wrap;html=1;" parent="1" vertex="1">
          <mxGeometry x="360" y="1240" width="120" height="60" as="geometry" />
        </mxCell>
        <mxCell id="uKUocHzos3Ya5gMg2su9-96" style="edgeStyle=none;rounded=0;orthogonalLoop=1;jettySize=auto;html=1;exitX=0.5;exitY=1;exitDx=0;exitDy=0;entryX=0.967;entryY=0.35;entryDx=0;entryDy=0;entryPerimeter=0;endArrow=none;endFill=0;" parent="1" source="uKUocHzos3Ya5gMg2su9-5" target="uKUocHzos3Ya5gMg2su9-85" edge="1">
          <mxGeometry relative="1" as="geometry" />
        </mxCell>
        <mxCell id="uKUocHzos3Ya5gMg2su9-103" style="edgeStyle=none;rounded=0;orthogonalLoop=1;jettySize=auto;html=1;exitX=0.5;exitY=1;exitDx=0;exitDy=0;entryX=0.5;entryY=0;entryDx=0;entryDy=0;endArrow=none;endFill=0;" parent="1" source="uKUocHzos3Ya5gMg2su9-5" target="uKUocHzos3Ya5gMg2su9-101" edge="1">
          <mxGeometry relative="1" as="geometry" />
        </mxCell>
        <mxCell id="uKUocHzos3Ya5gMg2su9-105" value="1" style="edgeLabel;html=1;align=center;verticalAlign=middle;resizable=0;points=[];" parent="uKUocHzos3Ya5gMg2su9-103" vertex="1" connectable="0">
          <mxGeometry x="0.4" relative="1" as="geometry">
            <mxPoint as="offset" />
          </mxGeometry>
        </mxCell>
        <mxCell id="uKUocHzos3Ya5gMg2su9-107" style="edgeStyle=none;rounded=0;orthogonalLoop=1;jettySize=auto;html=1;exitX=0.5;exitY=1;exitDx=0;exitDy=0;entryX=0.5;entryY=0;entryDx=0;entryDy=0;endArrow=none;endFill=0;" parent="1" source="uKUocHzos3Ya5gMg2su9-5" target="uKUocHzos3Ya5gMg2su9-106" edge="1">
          <mxGeometry relative="1" as="geometry" />
        </mxCell>
        <mxCell id="uKUocHzos3Ya5gMg2su9-111" value="1" style="edgeLabel;html=1;align=center;verticalAlign=middle;resizable=0;points=[];" parent="uKUocHzos3Ya5gMg2su9-107" vertex="1" connectable="0">
          <mxGeometry x="0.2256" y="2" relative="1" as="geometry">
            <mxPoint as="offset" />
          </mxGeometry>
        </mxCell>
        <mxCell id="uKUocHzos3Ya5gMg2su9-5" value="需求" style="rounded=0;whiteSpace=wrap;html=1;" parent="1" vertex="1">
          <mxGeometry x="820" y="770" width="120" height="60" as="geometry" />
        </mxCell>
        <mxCell id="uKUocHzos3Ya5gMg2su9-126" style="edgeStyle=none;rounded=0;orthogonalLoop=1;jettySize=auto;html=1;exitX=0;exitY=0.5;exitDx=0;exitDy=0;endArrow=none;endFill=0;" parent="1" source="uKUocHzos3Ya5gMg2su9-6" target="uKUocHzos3Ya5gMg2su9-123" edge="1">
          <mxGeometry relative="1" as="geometry" />
        </mxCell>
        <mxCell id="uKUocHzos3Ya5gMg2su9-135" style="edgeStyle=none;rounded=0;orthogonalLoop=1;jettySize=auto;html=1;exitX=0.5;exitY=1;exitDx=0;exitDy=0;entryX=0;entryY=0.5;entryDx=0;entryDy=0;endArrow=none;endFill=0;" parent="1" source="uKUocHzos3Ya5gMg2su9-6" target="uKUocHzos3Ya5gMg2su9-134" edge="1">
          <mxGeometry relative="1" as="geometry" />
        </mxCell>
        <mxCell id="uKUocHzos3Ya5gMg2su9-6" value="专利评估申请" style="rounded=0;whiteSpace=wrap;html=1;" parent="1" vertex="1">
          <mxGeometry x="610" y="380" width="120" height="60" as="geometry" />
        </mxCell>
        <mxCell id="uKUocHzos3Ya5gMg2su9-78" style="edgeStyle=none;rounded=0;orthogonalLoop=1;jettySize=auto;html=1;exitX=1;exitY=0.5;exitDx=0;exitDy=0;entryX=0;entryY=0.5;entryDx=0;entryDy=0;endArrow=none;endFill=0;" parent="1" source="uKUocHzos3Ya5gMg2su9-7" target="uKUocHzos3Ya5gMg2su9-77" edge="1">
          <mxGeometry relative="1" as="geometry" />
        </mxCell>
        <mxCell id="uKUocHzos3Ya5gMg2su9-80" value="n" style="edgeLabel;html=1;align=center;verticalAlign=middle;resizable=0;points=[];" parent="uKUocHzos3Ya5gMg2su9-78" vertex="1" connectable="0">
          <mxGeometry x="-0.1268" y="2" relative="1" as="geometry">
            <mxPoint as="offset" />
          </mxGeometry>
        </mxCell>
        <mxCell id="uKUocHzos3Ya5gMg2su9-7" value="领域" style="rounded=0;whiteSpace=wrap;html=1;" parent="1" vertex="1">
          <mxGeometry x="820" y="1230" width="120" height="60" as="geometry" />
        </mxCell>
        <mxCell id="uKUocHzos3Ya5gMg2su9-8" value="关键词" style="rounded=0;whiteSpace=wrap;html=1;" parent="1" vertex="1">
          <mxGeometry x="1300" y="1230" width="120" height="60" as="geometry" />
        </mxCell>
        <mxCell id="uKUocHzos3Ya5gMg2su9-9" value="成果" style="rounded=0;whiteSpace=wrap;html=1;" parent="1" vertex="1">
          <mxGeometry x="1330" y="770" width="120" height="60" as="geometry" />
        </mxCell>
        <mxCell id="vfpwjk4FEZ6oRi5jXQA5-10" style="edgeStyle=none;rounded=0;orthogonalLoop=1;jettySize=auto;html=1;exitX=0.5;exitY=1;exitDx=0;exitDy=0;entryX=0.638;entryY=0.15;entryDx=0;entryDy=0;entryPerimeter=0;endArrow=none;endFill=0;" edge="1" parent="1" source="uKUocHzos3Ya5gMg2su9-11" target="vfpwjk4FEZ6oRi5jXQA5-9">
          <mxGeometry relative="1" as="geometry" />
        </mxCell>
        <mxCell id="uKUocHzos3Ya5gMg2su9-11" value="专利转让申请" style="rounded=0;whiteSpace=wrap;html=1;" parent="1" vertex="1">
          <mxGeometry x="1070" y="380" width="120" height="60" as="geometry" />
        </mxCell>
        <mxCell id="uKUocHzos3Ya5gMg2su9-12" value="专利投资申请" style="rounded=0;whiteSpace=wrap;html=1;" parent="1" vertex="1">
          <mxGeometry x="1320" y="380" width="120" height="60" as="geometry" />
        </mxCell>
        <mxCell id="uKUocHzos3Ya5gMg2su9-13" value="专家需求" style="rounded=0;whiteSpace=wrap;html=1;" parent="1" vertex="1">
          <mxGeometry x="1570" y="380" width="120" height="60" as="geometry" />
        </mxCell>
        <mxCell id="uKUocHzos3Ya5gMg2su9-14" value="投资邀请" style="rounded=0;whiteSpace=wrap;html=1;" parent="1" vertex="1">
          <mxGeometry x="1110" y="40" width="120" height="60" as="geometry" />
        </mxCell>
        <mxCell id="uKUocHzos3Ya5gMg2su9-130" style="edgeStyle=none;rounded=0;orthogonalLoop=1;jettySize=auto;html=1;exitX=0.5;exitY=1;exitDx=0;exitDy=0;endArrow=none;endFill=0;" parent="1" source="uKUocHzos3Ya5gMg2su9-15" target="uKUocHzos3Ya5gMg2su9-129" edge="1">
          <mxGeometry relative="1" as="geometry" />
        </mxCell>
        <mxCell id="uKUocHzos3Ya5gMg2su9-132" value="1" style="edgeLabel;html=1;align=center;verticalAlign=middle;resizable=0;points=[];" parent="uKUocHzos3Ya5gMg2su9-130" vertex="1" connectable="0">
          <mxGeometry x="-0.1875" relative="1" as="geometry">
            <mxPoint as="offset" />
          </mxGeometry>
        </mxCell>
        <mxCell id="uKUocHzos3Ya5gMg2su9-15" value="评估机构" style="rounded=0;whiteSpace=wrap;html=1;" parent="1" vertex="1">
          <mxGeometry x="610" y="-70" width="120" height="60" as="geometry" />
        </mxCell>
        <mxCell id="uKUocHzos3Ya5gMg2su9-16" value="投资机构" style="rounded=0;whiteSpace=wrap;html=1;" parent="1" vertex="1">
          <mxGeometry x="1103" y="-240" width="120" height="60" as="geometry" />
        </mxCell>
        <mxCell id="uKUocHzos3Ya5gMg2su9-17" value="名称" style="ellipse;whiteSpace=wrap;html=1;" parent="1" vertex="1">
          <mxGeometry x="-170" y="620" width="120" height="80" as="geometry" />
        </mxCell>
        <mxCell id="uKUocHzos3Ya5gMg2su9-18" value="联系方式" style="ellipse;whiteSpace=wrap;html=1;" parent="1" vertex="1">
          <mxGeometry x="-230" y="690" width="120" height="80" as="geometry" />
        </mxCell>
        <mxCell id="uKUocHzos3Ya5gMg2su9-19" value="联系邮箱" style="ellipse;whiteSpace=wrap;html=1;" parent="1" vertex="1">
          <mxGeometry x="-270" y="770" width="120" height="80" as="geometry" />
        </mxCell>
        <mxCell id="uKUocHzos3Ya5gMg2su9-34" style="edgeStyle=none;rounded=0;orthogonalLoop=1;jettySize=auto;html=1;exitX=1;exitY=0.5;exitDx=0;exitDy=0;entryX=0;entryY=0.5;entryDx=0;entryDy=0;endArrow=none;endFill=0;" parent="1" source="uKUocHzos3Ya5gMg2su9-20" target="uKUocHzos3Ya5gMg2su9-2" edge="1">
          <mxGeometry relative="1" as="geometry" />
        </mxCell>
        <mxCell id="uKUocHzos3Ya5gMg2su9-20" value="联系地址" style="ellipse;whiteSpace=wrap;html=1;" parent="1" vertex="1">
          <mxGeometry x="-250" y="850" width="120" height="80" as="geometry" />
        </mxCell>
        <mxCell id="uKUocHzos3Ya5gMg2su9-35" style="edgeStyle=none;rounded=0;orthogonalLoop=1;jettySize=auto;html=1;exitX=1;exitY=0.5;exitDx=0;exitDy=0;entryX=0;entryY=0.5;entryDx=0;entryDy=0;endArrow=none;endFill=0;" parent="1" source="uKUocHzos3Ya5gMg2su9-21" target="uKUocHzos3Ya5gMg2su9-2" edge="1">
          <mxGeometry relative="1" as="geometry" />
        </mxCell>
        <mxCell id="uKUocHzos3Ya5gMg2su9-21" value="j介绍" style="ellipse;whiteSpace=wrap;html=1;" parent="1" vertex="1">
          <mxGeometry x="-210" y="920" width="120" height="80" as="geometry" />
        </mxCell>
        <mxCell id="uKUocHzos3Ya5gMg2su9-37" style="edgeStyle=none;rounded=0;orthogonalLoop=1;jettySize=auto;html=1;exitX=1;exitY=0.5;exitDx=0;exitDy=0;entryX=0;entryY=0.5;entryDx=0;entryDy=0;endArrow=none;endFill=0;" parent="1" source="uKUocHzos3Ya5gMg2su9-22" target="uKUocHzos3Ya5gMg2su9-2" edge="1">
          <mxGeometry relative="1" as="geometry" />
        </mxCell>
        <mxCell id="uKUocHzos3Ya5gMg2su9-22" value="状态" style="ellipse;whiteSpace=wrap;html=1;" parent="1" vertex="1">
          <mxGeometry x="-190" y="1000" width="120" height="80" as="geometry" />
        </mxCell>
        <mxCell id="uKUocHzos3Ya5gMg2su9-24" value="名称" style="ellipse;whiteSpace=wrap;html=1;" parent="1" vertex="1">
          <mxGeometry x="-220" y="1330" width="120" height="80" as="geometry" />
        </mxCell>
        <mxCell id="uKUocHzos3Ya5gMg2su9-25" value="联系方式" style="ellipse;whiteSpace=wrap;html=1;" parent="1" vertex="1">
          <mxGeometry x="-310" y="1400" width="120" height="80" as="geometry" />
        </mxCell>
        <mxCell id="uKUocHzos3Ya5gMg2su9-26" value="联系邮箱" style="ellipse;whiteSpace=wrap;html=1;" parent="1" vertex="1">
          <mxGeometry x="-310" y="1480" width="120" height="80" as="geometry" />
        </mxCell>
        <mxCell id="uKUocHzos3Ya5gMg2su9-27" value="联系地址" style="ellipse;whiteSpace=wrap;html=1;" parent="1" vertex="1">
          <mxGeometry x="-280" y="1560" width="120" height="80" as="geometry" />
        </mxCell>
        <mxCell id="uKUocHzos3Ya5gMg2su9-28" value="j介绍" style="ellipse;whiteSpace=wrap;html=1;" parent="1" vertex="1">
          <mxGeometry x="-240" y="1640" width="120" height="80" as="geometry" />
        </mxCell>
        <mxCell id="uKUocHzos3Ya5gMg2su9-29" value="状态" style="ellipse;whiteSpace=wrap;html=1;" parent="1" vertex="1">
          <mxGeometry x="-210" y="1730" width="120" height="80" as="geometry" />
        </mxCell>
        <mxCell id="uKUocHzos3Ya5gMg2su9-38" style="rounded=0;orthogonalLoop=1;jettySize=auto;html=1;exitX=0;exitY=0.5;exitDx=0;exitDy=0;endArrow=none;endFill=0;" parent="1" target="uKUocHzos3Ya5gMg2su9-41" edge="1">
          <mxGeometry relative="1" as="geometry">
            <mxPoint x="414" y="800" as="sourcePoint" />
          </mxGeometry>
        </mxCell>
        <mxCell id="uKUocHzos3Ya5gMg2su9-39" style="edgeStyle=none;rounded=0;orthogonalLoop=1;jettySize=auto;html=1;exitX=0;exitY=0.5;exitDx=0;exitDy=0;endArrow=none;endFill=0;" parent="1" target="uKUocHzos3Ya5gMg2su9-42" edge="1">
          <mxGeometry relative="1" as="geometry">
            <mxPoint x="414" y="800" as="sourcePoint" />
          </mxGeometry>
        </mxCell>
        <mxCell id="uKUocHzos3Ya5gMg2su9-40" style="edgeStyle=none;rounded=0;orthogonalLoop=1;jettySize=auto;html=1;exitX=0;exitY=0.5;exitDx=0;exitDy=0;entryX=1;entryY=0.5;entryDx=0;entryDy=0;endArrow=none;endFill=0;" parent="1" target="uKUocHzos3Ya5gMg2su9-43" edge="1">
          <mxGeometry relative="1" as="geometry">
            <mxPoint x="414" y="800" as="sourcePoint" />
          </mxGeometry>
        </mxCell>
        <mxCell id="uKUocHzos3Ya5gMg2su9-41" value="名称" style="ellipse;whiteSpace=wrap;html=1;" parent="1" vertex="1">
          <mxGeometry x="300" y="600" width="120" height="80" as="geometry" />
        </mxCell>
        <mxCell id="uKUocHzos3Ya5gMg2su9-42" value="联系方式" style="ellipse;whiteSpace=wrap;html=1;" parent="1" vertex="1">
          <mxGeometry x="180" y="610" width="120" height="80" as="geometry" />
        </mxCell>
        <mxCell id="uKUocHzos3Ya5gMg2su9-43" value="联系邮箱" style="ellipse;whiteSpace=wrap;html=1;" parent="1" vertex="1">
          <mxGeometry x="140" y="680" width="120" height="80" as="geometry" />
        </mxCell>
        <mxCell id="uKUocHzos3Ya5gMg2su9-44" style="edgeStyle=none;rounded=0;orthogonalLoop=1;jettySize=auto;html=1;exitX=1;exitY=0.5;exitDx=0;exitDy=0;entryX=0;entryY=0.5;entryDx=0;entryDy=0;endArrow=none;endFill=0;" parent="1" source="uKUocHzos3Ya5gMg2su9-45" edge="1">
          <mxGeometry relative="1" as="geometry">
            <mxPoint x="414" y="800" as="targetPoint" />
          </mxGeometry>
        </mxCell>
        <mxCell id="uKUocHzos3Ya5gMg2su9-45" value="联系地址" style="ellipse;whiteSpace=wrap;html=1;" parent="1" vertex="1">
          <mxGeometry x="194" y="840" width="120" height="80" as="geometry" />
        </mxCell>
        <mxCell id="uKUocHzos3Ya5gMg2su9-46" style="edgeStyle=none;rounded=0;orthogonalLoop=1;jettySize=auto;html=1;exitX=1;exitY=0.5;exitDx=0;exitDy=0;entryX=0;entryY=0.5;entryDx=0;entryDy=0;endArrow=none;endFill=0;" parent="1" source="uKUocHzos3Ya5gMg2su9-47" edge="1">
          <mxGeometry relative="1" as="geometry">
            <mxPoint x="414" y="800" as="targetPoint" />
          </mxGeometry>
        </mxCell>
        <mxCell id="uKUocHzos3Ya5gMg2su9-47" value="j介绍" style="ellipse;whiteSpace=wrap;html=1;" parent="1" vertex="1">
          <mxGeometry x="234" y="910" width="120" height="80" as="geometry" />
        </mxCell>
        <mxCell id="uKUocHzos3Ya5gMg2su9-48" style="edgeStyle=none;rounded=0;orthogonalLoop=1;jettySize=auto;html=1;exitX=1;exitY=0.5;exitDx=0;exitDy=0;entryX=0;entryY=0.5;entryDx=0;entryDy=0;endArrow=none;endFill=0;" parent="1" source="uKUocHzos3Ya5gMg2su9-49" edge="1">
          <mxGeometry relative="1" as="geometry">
            <mxPoint x="414" y="800" as="targetPoint" />
          </mxGeometry>
        </mxCell>
        <mxCell id="uKUocHzos3Ya5gMg2su9-49" value="状态" style="ellipse;whiteSpace=wrap;html=1;" parent="1" vertex="1">
          <mxGeometry x="254" y="990" width="120" height="80" as="geometry" />
        </mxCell>
        <mxCell id="uKUocHzos3Ya5gMg2su9-52" style="edgeStyle=none;rounded=0;orthogonalLoop=1;jettySize=auto;html=1;exitX=1;exitY=0.5;exitDx=0;exitDy=0;entryX=0;entryY=0.5;entryDx=0;entryDy=0;endArrow=none;endFill=0;" parent="1" source="uKUocHzos3Ya5gMg2su9-50" target="uKUocHzos3Ya5gMg2su9-1" edge="1">
          <mxGeometry relative="1" as="geometry" />
        </mxCell>
        <mxCell id="uKUocHzos3Ya5gMg2su9-53" value="1" style="edgeLabel;html=1;align=center;verticalAlign=middle;resizable=0;points=[];" parent="uKUocHzos3Ya5gMg2su9-52" vertex="1" connectable="0">
          <mxGeometry x="-0.122" y="-2" relative="1" as="geometry">
            <mxPoint as="offset" />
          </mxGeometry>
        </mxCell>
        <mxCell id="uKUocHzos3Ya5gMg2su9-50" value="属于" style="rhombus;whiteSpace=wrap;html=1;" parent="1" vertex="1">
          <mxGeometry x="170" y="760" width="80" height="80" as="geometry" />
        </mxCell>
        <mxCell id="uKUocHzos3Ya5gMg2su9-54" value="名称" style="ellipse;whiteSpace=wrap;html=1;" parent="1" vertex="1">
          <mxGeometry x="280" y="1360" width="120" height="80" as="geometry" />
        </mxCell>
        <mxCell id="uKUocHzos3Ya5gMg2su9-58" style="edgeStyle=none;rounded=0;orthogonalLoop=1;jettySize=auto;html=1;exitX=0.5;exitY=0;exitDx=0;exitDy=0;entryX=0.5;entryY=1;entryDx=0;entryDy=0;endArrow=none;endFill=0;" parent="1" source="uKUocHzos3Ya5gMg2su9-55" target="uKUocHzos3Ya5gMg2su9-4" edge="1">
          <mxGeometry relative="1" as="geometry" />
        </mxCell>
        <mxCell id="uKUocHzos3Ya5gMg2su9-55" value="排序" style="ellipse;whiteSpace=wrap;html=1;" parent="1" vertex="1">
          <mxGeometry x="470" y="1360" width="120" height="80" as="geometry" />
        </mxCell>
        <mxCell id="uKUocHzos3Ya5gMg2su9-62" style="edgeStyle=none;rounded=0;orthogonalLoop=1;jettySize=auto;html=1;exitX=0.5;exitY=1;exitDx=0;exitDy=0;entryX=0.5;entryY=0;entryDx=0;entryDy=0;endArrow=none;endFill=0;" parent="1" source="uKUocHzos3Ya5gMg2su9-60" target="uKUocHzos3Ya5gMg2su9-4" edge="1">
          <mxGeometry relative="1" as="geometry" />
        </mxCell>
        <mxCell id="uKUocHzos3Ya5gMg2su9-60" value="属于" style="rhombus;whiteSpace=wrap;html=1;" parent="1" vertex="1">
          <mxGeometry x="380" y="1040" width="80" height="80" as="geometry" />
        </mxCell>
        <mxCell id="uKUocHzos3Ya5gMg2su9-65" value="n" style="edgeStyle=none;rounded=0;orthogonalLoop=1;jettySize=auto;html=1;exitX=1;exitY=0.5;exitDx=0;exitDy=0;entryX=0;entryY=0.5;entryDx=0;entryDy=0;endArrow=none;endFill=0;" parent="1" source="uKUocHzos3Ya5gMg2su9-63" target="uKUocHzos3Ya5gMg2su9-5" edge="1">
          <mxGeometry relative="1" as="geometry" />
        </mxCell>
        <mxCell id="uKUocHzos3Ya5gMg2su9-63" value="拥有" style="rhombus;whiteSpace=wrap;html=1;" parent="1" vertex="1">
          <mxGeometry x="640" y="760" width="80" height="80" as="geometry" />
        </mxCell>
        <mxCell id="uKUocHzos3Ya5gMg2su9-67" style="edgeStyle=none;rounded=0;orthogonalLoop=1;jettySize=auto;html=1;entryX=0.5;entryY=0;entryDx=0;entryDy=0;endArrow=none;endFill=0;exitX=0.5;exitY=1;exitDx=0;exitDy=0;" parent="1" source="uKUocHzos3Ya5gMg2su9-7" target="uKUocHzos3Ya5gMg2su9-68" edge="1">
          <mxGeometry relative="1" as="geometry">
            <mxPoint x="880" y="1300" as="sourcePoint" />
          </mxGeometry>
        </mxCell>
        <mxCell id="uKUocHzos3Ya5gMg2su9-68" value="名称" style="ellipse;whiteSpace=wrap;html=1;" parent="1" vertex="1">
          <mxGeometry x="740" y="1360" width="120" height="80" as="geometry" />
        </mxCell>
        <mxCell id="uKUocHzos3Ya5gMg2su9-69" style="edgeStyle=none;rounded=0;orthogonalLoop=1;jettySize=auto;html=1;exitX=0.5;exitY=0;exitDx=0;exitDy=0;endArrow=none;endFill=0;entryX=0.5;entryY=1;entryDx=0;entryDy=0;" parent="1" source="uKUocHzos3Ya5gMg2su9-70" target="uKUocHzos3Ya5gMg2su9-7" edge="1">
          <mxGeometry relative="1" as="geometry">
            <mxPoint x="880" y="1300" as="targetPoint" />
          </mxGeometry>
        </mxCell>
        <mxCell id="uKUocHzos3Ya5gMg2su9-70" value="排序" style="ellipse;whiteSpace=wrap;html=1;" parent="1" vertex="1">
          <mxGeometry x="930" y="1360" width="120" height="80" as="geometry" />
        </mxCell>
        <mxCell id="uKUocHzos3Ya5gMg2su9-75" style="edgeStyle=none;rounded=0;orthogonalLoop=1;jettySize=auto;html=1;exitX=0.5;exitY=0;exitDx=0;exitDy=0;entryX=0.5;entryY=1;entryDx=0;entryDy=0;endArrow=none;endFill=0;" parent="1" source="uKUocHzos3Ya5gMg2su9-72" target="uKUocHzos3Ya5gMg2su9-8" edge="1">
          <mxGeometry relative="1" as="geometry" />
        </mxCell>
        <mxCell id="uKUocHzos3Ya5gMg2su9-72" value="名称" style="ellipse;whiteSpace=wrap;html=1;" parent="1" vertex="1">
          <mxGeometry x="1223" y="1370" width="120" height="80" as="geometry" />
        </mxCell>
        <mxCell id="uKUocHzos3Ya5gMg2su9-76" style="edgeStyle=none;rounded=0;orthogonalLoop=1;jettySize=auto;html=1;exitX=0.5;exitY=0;exitDx=0;exitDy=0;endArrow=none;endFill=0;" parent="1" source="uKUocHzos3Ya5gMg2su9-73" edge="1">
          <mxGeometry relative="1" as="geometry">
            <mxPoint x="1360" y="1290" as="targetPoint" />
          </mxGeometry>
        </mxCell>
        <mxCell id="uKUocHzos3Ya5gMg2su9-73" value="排序" style="ellipse;whiteSpace=wrap;html=1;" parent="1" vertex="1">
          <mxGeometry x="1413" y="1370" width="120" height="80" as="geometry" />
        </mxCell>
        <mxCell id="uKUocHzos3Ya5gMg2su9-79" style="edgeStyle=none;rounded=0;orthogonalLoop=1;jettySize=auto;html=1;exitX=1;exitY=0.5;exitDx=0;exitDy=0;endArrow=none;endFill=0;" parent="1" source="uKUocHzos3Ya5gMg2su9-77" target="uKUocHzos3Ya5gMg2su9-8" edge="1">
          <mxGeometry relative="1" as="geometry" />
        </mxCell>
        <mxCell id="uKUocHzos3Ya5gMg2su9-83" value="n" style="edgeLabel;html=1;align=center;verticalAlign=middle;resizable=0;points=[];" parent="uKUocHzos3Ya5gMg2su9-79" vertex="1" connectable="0">
          <mxGeometry x="-0.184" y="-1" relative="1" as="geometry">
            <mxPoint as="offset" />
          </mxGeometry>
        </mxCell>
        <mxCell id="uKUocHzos3Ya5gMg2su9-77" value="拥有" style="rhombus;whiteSpace=wrap;html=1;" parent="1" vertex="1">
          <mxGeometry x="1100" y="1230" width="80" height="80" as="geometry" />
        </mxCell>
        <mxCell id="uKUocHzos3Ya5gMg2su9-85" value="主题" style="ellipse;whiteSpace=wrap;html=1;" parent="1" vertex="1">
          <mxGeometry x="660" y="850" width="120" height="80" as="geometry" />
        </mxCell>
        <mxCell id="uKUocHzos3Ya5gMg2su9-97" style="edgeStyle=none;rounded=0;orthogonalLoop=1;jettySize=auto;html=1;exitX=1;exitY=0;exitDx=0;exitDy=0;endArrow=none;endFill=0;" parent="1" source="uKUocHzos3Ya5gMg2su9-86" edge="1">
          <mxGeometry relative="1" as="geometry">
            <mxPoint x="880" y="830" as="targetPoint" />
          </mxGeometry>
        </mxCell>
        <mxCell id="uKUocHzos3Ya5gMg2su9-86" value="描述" style="ellipse;whiteSpace=wrap;html=1;" parent="1" vertex="1">
          <mxGeometry x="710" y="930" width="120" height="80" as="geometry" />
        </mxCell>
        <mxCell id="uKUocHzos3Ya5gMg2su9-100" style="edgeStyle=none;rounded=0;orthogonalLoop=1;jettySize=auto;html=1;exitX=0;exitY=0.5;exitDx=0;exitDy=0;endArrow=none;endFill=0;" parent="1" source="uKUocHzos3Ya5gMg2su9-88" edge="1">
          <mxGeometry relative="1" as="geometry">
            <mxPoint x="880" y="830" as="targetPoint" />
          </mxGeometry>
        </mxCell>
        <mxCell id="uKUocHzos3Ya5gMg2su9-88" value="联系地址" style="ellipse;whiteSpace=wrap;html=1;" parent="1" vertex="1">
          <mxGeometry x="1040" y="850" width="120" height="80" as="geometry" />
        </mxCell>
        <mxCell id="uKUocHzos3Ya5gMg2su9-99" style="edgeStyle=none;rounded=0;orthogonalLoop=1;jettySize=auto;html=1;exitX=0;exitY=0;exitDx=0;exitDy=0;endArrow=none;endFill=0;" parent="1" source="uKUocHzos3Ya5gMg2su9-89" edge="1">
          <mxGeometry relative="1" as="geometry">
            <mxPoint x="880" y="830" as="targetPoint" />
          </mxGeometry>
        </mxCell>
        <mxCell id="uKUocHzos3Ya5gMg2su9-89" value="联系邮箱" style="ellipse;whiteSpace=wrap;html=1;" parent="1" vertex="1">
          <mxGeometry x="950" y="900" width="120" height="80" as="geometry" />
        </mxCell>
        <mxCell id="uKUocHzos3Ya5gMg2su9-98" style="edgeStyle=none;rounded=0;orthogonalLoop=1;jettySize=auto;html=1;exitX=0;exitY=0;exitDx=0;exitDy=0;endArrow=none;endFill=0;" parent="1" source="uKUocHzos3Ya5gMg2su9-90" edge="1">
          <mxGeometry relative="1" as="geometry">
            <mxPoint x="880" y="830" as="targetPoint" />
          </mxGeometry>
        </mxCell>
        <mxCell id="uKUocHzos3Ya5gMg2su9-90" value="联系电话" style="ellipse;whiteSpace=wrap;html=1;" parent="1" vertex="1">
          <mxGeometry x="910" y="980" width="120" height="80" as="geometry" />
        </mxCell>
        <mxCell id="uKUocHzos3Ya5gMg2su9-104" value="1" style="edgeStyle=none;rounded=0;orthogonalLoop=1;jettySize=auto;html=1;exitX=0.5;exitY=1;exitDx=0;exitDy=0;entryX=0.5;entryY=0;entryDx=0;entryDy=0;endArrow=none;endFill=0;" parent="1" source="uKUocHzos3Ya5gMg2su9-101" target="uKUocHzos3Ya5gMg2su9-7" edge="1">
          <mxGeometry relative="1" as="geometry" />
        </mxCell>
        <mxCell id="uKUocHzos3Ya5gMg2su9-101" value="拥有" style="rhombus;whiteSpace=wrap;html=1;" parent="1" vertex="1">
          <mxGeometry x="770" y="1080" width="80" height="80" as="geometry" />
        </mxCell>
        <mxCell id="uKUocHzos3Ya5gMg2su9-109" style="edgeStyle=none;rounded=0;orthogonalLoop=1;jettySize=auto;html=1;exitX=0.5;exitY=1;exitDx=0;exitDy=0;endArrow=none;endFill=0;" parent="1" source="uKUocHzos3Ya5gMg2su9-106" target="uKUocHzos3Ya5gMg2su9-8" edge="1">
          <mxGeometry relative="1" as="geometry" />
        </mxCell>
        <mxCell id="uKUocHzos3Ya5gMg2su9-110" value="n" style="edgeLabel;html=1;align=center;verticalAlign=middle;resizable=0;points=[];" parent="uKUocHzos3Ya5gMg2su9-109" vertex="1" connectable="0">
          <mxGeometry x="0.2624" y="4" relative="1" as="geometry">
            <mxPoint as="offset" />
          </mxGeometry>
        </mxCell>
        <mxCell id="uKUocHzos3Ya5gMg2su9-106" value="拥有" style="rhombus;whiteSpace=wrap;html=1;" parent="1" vertex="1">
          <mxGeometry x="870" y="1080" width="80" height="80" as="geometry" />
        </mxCell>
        <mxCell id="uKUocHzos3Ya5gMg2su9-114" value="主题" style="ellipse;whiteSpace=wrap;html=1;" parent="1" vertex="1">
          <mxGeometry x="1350" y="-80" width="120" height="80" as="geometry" />
        </mxCell>
        <mxCell id="uKUocHzos3Ya5gMg2su9-116" value="联系人" style="ellipse;whiteSpace=wrap;html=1;" parent="1" vertex="1">
          <mxGeometry x="220" y="120" width="120" height="80" as="geometry" />
        </mxCell>
        <mxCell id="uKUocHzos3Ya5gMg2su9-117" value="联系邮箱" style="ellipse;whiteSpace=wrap;html=1;" parent="1" vertex="1">
          <mxGeometry x="150" y="180" width="120" height="80" as="geometry" />
        </mxCell>
        <mxCell id="uKUocHzos3Ya5gMg2su9-118" value="联系电话" style="ellipse;whiteSpace=wrap;html=1;" parent="1" vertex="1">
          <mxGeometry x="180" y="260" width="120" height="80" as="geometry" />
        </mxCell>
        <mxCell id="uKUocHzos3Ya5gMg2su9-119" value="举办地址" style="ellipse;whiteSpace=wrap;html=1;" parent="1" vertex="1">
          <mxGeometry x="1400" y="-10" width="120" height="80" as="geometry" />
        </mxCell>
        <mxCell id="uKUocHzos3Ya5gMg2su9-120" value="联系邮箱" style="ellipse;whiteSpace=wrap;html=1;" parent="1" vertex="1">
          <mxGeometry x="1400" y="70" width="120" height="80" as="geometry" />
        </mxCell>
        <mxCell id="uKUocHzos3Ya5gMg2su9-121" value="联系电话" style="ellipse;whiteSpace=wrap;html=1;" parent="1" vertex="1">
          <mxGeometry x="1380" y="150" width="120" height="80" as="geometry" />
        </mxCell>
        <mxCell id="uKUocHzos3Ya5gMg2su9-123" value="联系人" style="ellipse;whiteSpace=wrap;html=1;" parent="1" vertex="1">
          <mxGeometry x="454" y="290" width="120" height="80" as="geometry" />
        </mxCell>
        <mxCell id="uKUocHzos3Ya5gMg2su9-127" style="edgeStyle=none;rounded=0;orthogonalLoop=1;jettySize=auto;html=1;exitX=1;exitY=0.5;exitDx=0;exitDy=0;entryX=0;entryY=0.5;entryDx=0;entryDy=0;endArrow=none;endFill=0;" parent="1" source="uKUocHzos3Ya5gMg2su9-124" target="uKUocHzos3Ya5gMg2su9-6" edge="1">
          <mxGeometry relative="1" as="geometry" />
        </mxCell>
        <mxCell id="uKUocHzos3Ya5gMg2su9-124" value="联系邮箱" style="ellipse;whiteSpace=wrap;html=1;" parent="1" vertex="1">
          <mxGeometry x="414" y="370" width="120" height="80" as="geometry" />
        </mxCell>
        <mxCell id="uKUocHzos3Ya5gMg2su9-128" style="edgeStyle=none;rounded=0;orthogonalLoop=1;jettySize=auto;html=1;exitX=1;exitY=0;exitDx=0;exitDy=0;endArrow=none;endFill=0;entryX=0;entryY=0.5;entryDx=0;entryDy=0;" parent="1" source="uKUocHzos3Ya5gMg2su9-125" target="uKUocHzos3Ya5gMg2su9-6" edge="1">
          <mxGeometry relative="1" as="geometry">
            <mxPoint x="540" y="410" as="targetPoint" />
          </mxGeometry>
        </mxCell>
        <mxCell id="uKUocHzos3Ya5gMg2su9-125" value="联系电话" style="ellipse;whiteSpace=wrap;html=1;" parent="1" vertex="1">
          <mxGeometry x="474" y="450" width="120" height="80" as="geometry" />
        </mxCell>
        <mxCell id="uKUocHzos3Ya5gMg2su9-131" style="edgeStyle=none;rounded=0;orthogonalLoop=1;jettySize=auto;html=1;exitX=0.5;exitY=1;exitDx=0;exitDy=0;entryX=0.5;entryY=0;entryDx=0;entryDy=0;endArrow=none;endFill=0;" parent="1" source="uKUocHzos3Ya5gMg2su9-129" target="uKUocHzos3Ya5gMg2su9-6" edge="1">
          <mxGeometry relative="1" as="geometry" />
        </mxCell>
        <mxCell id="uKUocHzos3Ya5gMg2su9-133" value="n" style="edgeLabel;html=1;align=center;verticalAlign=middle;resizable=0;points=[];" parent="uKUocHzos3Ya5gMg2su9-131" vertex="1" connectable="0">
          <mxGeometry x="-0.1993" y="2" relative="1" as="geometry">
            <mxPoint as="offset" />
          </mxGeometry>
        </mxCell>
        <mxCell id="uKUocHzos3Ya5gMg2su9-129" value="拥有" style="rhombus;whiteSpace=wrap;html=1;" parent="1" vertex="1">
          <mxGeometry x="630" y="150" width="80" height="80" as="geometry" />
        </mxCell>
        <mxCell id="uKUocHzos3Ya5gMg2su9-136" style="edgeStyle=none;rounded=0;orthogonalLoop=1;jettySize=auto;html=1;exitX=1;exitY=0.5;exitDx=0;exitDy=0;endArrow=none;endFill=0;" parent="1" source="uKUocHzos3Ya5gMg2su9-134" target="uKUocHzos3Ya5gMg2su9-9" edge="1">
          <mxGeometry relative="1" as="geometry" />
        </mxCell>
        <mxCell id="uKUocHzos3Ya5gMg2su9-134" value="拥有" style="rhombus;whiteSpace=wrap;html=1;" parent="1" vertex="1">
          <mxGeometry x="810" y="585" width="80" height="80" as="geometry" />
        </mxCell>
        <mxCell id="vfpwjk4FEZ6oRi5jXQA5-5" style="rounded=0;orthogonalLoop=1;jettySize=auto;html=1;exitX=1;exitY=1;exitDx=0;exitDy=0;endArrow=none;endFill=0;entryX=0;entryY=0.5;entryDx=0;entryDy=0;" edge="1" parent="1" source="vfpwjk4FEZ6oRi5jXQA5-1" target="uKUocHzos3Ya5gMg2su9-11">
          <mxGeometry relative="1" as="geometry" />
        </mxCell>
        <mxCell id="vfpwjk4FEZ6oRi5jXQA5-1" value="联系人" style="ellipse;whiteSpace=wrap;html=1;" vertex="1" parent="1">
          <mxGeometry x="930" y="300" width="120" height="80" as="geometry" />
        </mxCell>
        <mxCell id="vfpwjk4FEZ6oRi5jXQA5-6" style="edgeStyle=none;rounded=0;orthogonalLoop=1;jettySize=auto;html=1;exitX=1;exitY=0.5;exitDx=0;exitDy=0;endArrow=none;endFill=0;" edge="1" parent="1" source="vfpwjk4FEZ6oRi5jXQA5-2">
          <mxGeometry relative="1" as="geometry">
            <mxPoint x="1070" y="410" as="targetPoint" />
          </mxGeometry>
        </mxCell>
        <mxCell id="vfpwjk4FEZ6oRi5jXQA5-2" value="联系邮箱" style="ellipse;whiteSpace=wrap;html=1;" vertex="1" parent="1">
          <mxGeometry x="890" y="380" width="120" height="80" as="geometry" />
        </mxCell>
        <mxCell id="vfpwjk4FEZ6oRi5jXQA5-7" style="edgeStyle=none;rounded=0;orthogonalLoop=1;jettySize=auto;html=1;exitX=1;exitY=0;exitDx=0;exitDy=0;endArrow=none;endFill=0;" edge="1" parent="1" source="vfpwjk4FEZ6oRi5jXQA5-3">
          <mxGeometry relative="1" as="geometry">
            <mxPoint x="1070" y="410" as="targetPoint" />
          </mxGeometry>
        </mxCell>
        <mxCell id="vfpwjk4FEZ6oRi5jXQA5-3" value="联系电话" style="ellipse;whiteSpace=wrap;html=1;" vertex="1" parent="1">
          <mxGeometry x="950" y="460" width="120" height="80" as="geometry" />
        </mxCell>
        <mxCell id="vfpwjk4FEZ6oRi5jXQA5-12" style="edgeStyle=none;rounded=0;orthogonalLoop=1;jettySize=auto;html=1;exitX=0.5;exitY=1;exitDx=0;exitDy=0;entryX=0.5;entryY=0;entryDx=0;entryDy=0;endArrow=none;endFill=0;" edge="1" parent="1" source="vfpwjk4FEZ6oRi5jXQA5-9" target="uKUocHzos3Ya5gMg2su9-9">
          <mxGeometry relative="1" as="geometry" />
        </mxCell>
        <mxCell id="vfpwjk4FEZ6oRi5jXQA5-9" value="报价" style="rhombus;whiteSpace=wrap;html=1;" vertex="1" parent="1">
          <mxGeometry x="1201" y="570" width="80" height="80" as="geometry" />
        </mxCell>
      </root>
    </mxGraphModel>
  </diagram>
</mxfile>
